HIERARCHY
ROOT hip
{
	OFFSET 0.000000 0.000000 0.000000 
	CHANNELS 6 Xposition Yposition Zposition Zrotation Xrotation Yrotation
	JOINT abdomen
	{
		OFFSET 0.000000 3.402643 0.000000 
		CHANNELS 3 Zrotation Xrotation Yrotation
		JOINT chest
		{
			OFFSET 0.000000 8.438565 -0.680529 
			CHANNELS 3 Zrotation Xrotation Yrotation
			JOINT neck
			{
				OFFSET 0.000000 10.207942 -0.272212 
				CHANNELS 3 Zrotation Xrotation Yrotation
				JOINT head
				{
					OFFSET 0.000000 3.130431 0.000000 
					CHANNELS 3 Zrotation Xrotation Yrotation
					End Site
					{
						OFFSET 0.000000 3.130435 0.000000 
					}
				}
			}
			JOINT lCollar
			{
				OFFSET 3.470700 6.669187 -0.816635 
				CHANNELS 3 Zrotation Xrotation Yrotation
				JOINT lShldr
				{
					OFFSET 3.198488 0.000000 0.000000 
					CHANNELS 3 Zrotation Xrotation Yrotation
					JOINT lForeArm
					{
						OFFSET 10.139888 0.000000 0.000000 
						CHANNELS 3 Zrotation Xrotation Yrotation
						JOINT lHand
						{
							OFFSET 8.370511 0.000000 0.000000 
							CHANNELS 3 Zrotation Xrotation Yrotation
							End Site
							{
								OFFSET 4.083176 0.000000 0.000000 
							}
						}
					}
				}
			}
			JOINT rCollar
			{
				OFFSET -3.470700 6.669187 -0.816635 
				CHANNELS 3 Zrotation Xrotation Yrotation
				JOINT rShldr
				{
					OFFSET -3.198488 0.000000 0.000000 
					CHANNELS 3 Zrotation Xrotation Yrotation
					JOINT rForeArm
					{
						OFFSET -10.139888 0.000000 0.000000 
						CHANNELS 3 Zrotation Xrotation Yrotation
						JOINT rHand
						{
							OFFSET -8.370511 0.000000 0.000000 
							CHANNELS 3 Zrotation Xrotation Yrotation
							End Site
							{
								OFFSET -4.083176 0.000000 0.000000 
							}
						}
					}
				}
			}
		}
	}
	JOINT lThigh
	{
		OFFSET 5.308129 -1.633274 1.361059 
		CHANNELS 3 Zrotation Xrotation Yrotation
		JOINT lShin
		{
			OFFSET -2.041588 -20.007561 0.000000 
			CHANNELS 3 Zrotation Xrotation Yrotation
			JOINT lFoot
			{
				OFFSET 0.000000 -19.190928 -1.224953 
				CHANNELS 3 Zrotation Xrotation Yrotation
				End Site
				{
					OFFSET 0.000000 -2.449906 4.627600 
				}
			}
		}
	}
	JOINT rThigh
	{
		OFFSET -5.308129 -1.633274 1.361059 
		CHANNELS 3 Zrotation Xrotation Yrotation
		JOINT rShin
		{
			OFFSET 2.041588 -20.007561 0.000000 
			CHANNELS 3 Zrotation Xrotation Yrotation
			JOINT rFoot
			{
				OFFSET 0.000000 -19.190928 -1.224953 
				CHANNELS 3 Zrotation Xrotation Yrotation
				End Site
				{
					OFFSET 0.000000 -2.449906 4.627600 
				}
			}
		}
	}
}
MOTION
Frames: 19
Frame Time: 0.016667
-121.650002 49.916779 -30.437901 -2.812500 12.099600 -40.215099 3.278690 13.942400 -0.728629 -0.258263 -21.044300 0.460339 -12.862600 40.119202 7.977510 0.179010 22.920799 2.181920 -1.998780 -0.069785 1.998780 -80.287201 -1.469770 -12.030000 -0.662047 -2.346160 -29.534100 -0.098143 12.647000 0.100974 1.998780 -0.069785 -1.998780 95.982101 -2.250970 11.122700 0.176274 1.026230 29.939800 0.076873 33.424000 -0.036732 7.153260 -23.059401 -27.727100 3.743200 39.598000 0.286602 22.740101 -39.755299 35.607201 10.369000 -19.929399 -0.105708 -2.009250 21.382601 -1.347090 2.732850 -11.846500 10.310200 
-122.478996 49.896877 -30.909100 -2.822270 12.080100 -40.469002 3.329280 13.970700 -0.756164 -0.259510 -21.054199 0.428976 -13.472800 40.112099 8.112970 0.008465 22.930201 2.116400 -1.998780 -0.069785 1.998780 -80.220497 -1.431420 -12.049800 -0.668027 -2.343560 -29.719801 -0.098168 12.471000 0.101340 1.998780 -0.069785 -1.998780 95.927696 -2.327940 11.094300 0.176773 1.026390 29.969000 0.076769 33.492001 -0.036535 7.182250 -23.015699 -27.874100 3.739000 39.716801 0.298634 22.850000 -39.901299 35.689999 10.419000 -19.834101 -0.202738 -1.996090 21.384199 -1.359440 2.815450 -11.932900 10.537400 
-123.302002 49.876080 -31.379299 -2.812500 12.050800 -40.723000 3.390090 14.008600 -0.806812 -0.258341 -21.063999 0.376682 -14.089600 40.103699 8.276040 -0.162085 22.939600 2.070410 -1.998780 -0.069785 1.998780 -80.169098 -1.459920 -12.069000 -0.672740 -2.341500 -29.866400 -0.098174 12.442000 0.101401 1.998780 -0.069785 -1.998780 95.872002 -2.405220 11.036800 0.177603 1.026660 30.017900 0.076692 33.541000 -0.036393 7.173520 -23.010599 -28.004000 3.762680 39.901299 0.275082 22.958000 -40.079201 35.774502 10.465500 -19.750999 -0.309735 -2.004730 21.402599 -1.346890 2.914660 -12.034700 10.771900 
-124.116997 49.856079 -31.848900 -2.783200 12.021500 -40.976898 3.460930 14.046300 -0.851224 -0.260842 -21.083700 0.313934 -14.723600 40.084499 8.457420 -0.312549 22.939301 2.022930 -1.998780 -0.069785 1.998780 -80.153603 -1.574510 -12.070600 -0.675251 -2.340390 -29.944599 -0.098155 12.559000 0.101156 1.998780 -0.069785 -1.998780 95.790001 -2.453990 10.958200 0.178433 1.026930 30.066700 0.076723 33.521999 -0.036450 7.202130 -22.962799 -28.113001 3.776650 39.958599 0.255417 22.978399 -40.152699 35.778198 10.503000 -19.662300 -0.389471 -2.011500 21.422001 -1.354150 2.999170 -12.151700 10.975500 
-124.925003 49.837677 -32.318298 -2.753910 11.972700 -41.230801 3.551810 14.083400 -0.922217 -0.260941 -21.093599 0.230263 -15.360000 40.024200 8.681110 -0.462983 22.929100 1.985200 -1.998780 -0.069785 1.998780 -80.179100 -1.736940 -12.061600 -0.676506 -2.339840 -29.983700 -0.098136 12.686000 0.100893 1.998780 -0.069785 -1.998780 95.667297 -2.445340 10.871000 0.179261 1.027190 30.115499 0.076858 33.433998 -0.036704 7.218420 -22.964500 -28.177700 3.784870 40.046299 0.245286 22.976700 -40.172100 35.755402 10.578500 -19.633801 -0.400533 -2.013190 21.520700 -1.367590 3.083980 -12.347200 11.118100 
-125.724998 49.821278 -32.788399 -2.724610 11.904300 -41.504200 3.632740 14.120700 -0.979931 -0.267129 -21.113199 0.157017 -15.996800 39.954601 8.893820 -0.613350 22.899401 1.947440 -1.998780 -0.069785 1.998780 -80.200302 -1.842360 -12.023300 -0.677134 -2.339560 -30.003201 -0.098130 12.725000 0.100812 1.998780 -0.069785 -1.998780 95.584396 -2.494350 10.773300 0.179593 1.027300 30.135000 0.076932 33.384998 -0.036844 7.281590 -22.877100 -28.184601 3.800640 40.074799 0.246780 22.957800 -40.156601 35.720600 10.644200 -19.501101 -0.350092 -2.007060 21.551001 -1.377060 3.186230 -12.573700 11.232200 
-126.522003 49.805977 -33.259800 -2.714850 11.816400 -41.777699 3.703680 14.158300 -1.024360 -0.272063 -21.122999 0.115154 -16.597200 39.895802 9.089140 -0.753674 22.869801 1.918710 -1.998780 -0.069785 1.998780 -80.184898 -1.871450 -11.975500 -0.677448 -2.339420 -30.013000 -0.098139 12.656000 0.100954 1.998780 -0.069785 -1.998780 95.542099 -2.658640 10.667600 0.179593 1.027300 30.135000 0.076887 33.414001 -0.036760 7.388990 -22.718000 -28.113400 3.829600 40.052200 0.217748 22.930000 -40.144600 35.725201 10.746100 -19.428301 -0.250815 -2.045900 21.723600 -1.349020 3.272440 -12.916200 11.310000 
-127.316002 49.790379 -33.732800 -2.705080 11.709000 -42.060799 3.764660 14.195900 -1.055500 -0.279415 -21.122999 0.094216 -17.162001 39.848099 9.257880 -0.904015 22.840000 1.880950 -1.998780 -0.069785 1.998780 -80.137901 -1.843330 -11.916300 -0.676819 -2.339700 -29.993401 -0.098154 12.569000 0.101136 1.998780 -0.069785 -1.998780 95.544601 -2.909440 10.562800 0.179593 1.027300 30.135000 0.076798 33.473000 -0.036592 7.448380 -22.639700 -28.013901 3.861980 40.157101 0.187275 22.881500 -40.140900 35.667801 10.861600 -19.260599 -0.063598 -2.047780 21.783100 -1.364660 3.376030 -13.236200 11.407100 
-128.104004 49.772778 -34.205101 -2.685550 11.582000 -42.334301 3.825910 14.243400 -1.076950 -0.283091 -21.123100 0.083747 -17.720100 39.820900 9.410810 -1.054460 22.839500 1.843220 -1.998780 -0.069785 1.998780 -80.123398 -1.834470 -11.838200 -0.675251 -2.340390 -29.944599 -0.098157 12.549000 0.101177 1.998780 -0.069785 -1.998780 95.540199 -3.189580 10.429300 0.179759 1.027360 30.144800 0.076754 33.501999 -0.036506 7.586980 -22.442200 -27.872601 3.861200 40.048901 0.186678 22.788900 -40.137100 35.524200 10.956600 -19.090401 0.108243 -2.058160 21.850401 -1.348870 3.498980 -13.587000 11.558600 
-128.882004 49.751778 -34.672699 -2.656250 11.455100 -42.549198 3.927490 14.299600 -1.151620 -0.292969 -21.122999 -0.000002 -18.336599 39.789200 9.654200 -1.194900 22.848801 1.834070 -1.998780 -0.069785 1.998780 -80.212196 -1.998170 -11.712200 -0.672425 -2.341630 -29.856600 -0.098135 12.696000 0.100872 1.998780 -0.069785 -1.998780 95.427902 -3.326330 10.255500 0.180256 1.027520 30.174000 0.076828 33.452999 -0.036647 7.675440 -22.291800 -27.766500 3.881760 40.086102 0.166130 22.662600 -40.254601 35.365700 10.999500 -18.888700 0.200411 -2.055560 21.860001 -1.339080 3.664790 -13.874400 11.808800 
-129.641998 49.728378 -35.132999 -2.617190 11.328100 -42.715199 4.029150 14.355800 -1.236070 -0.294346 -21.132700 -0.115162 -18.996401 39.745602 9.941930 -1.335360 22.858101 1.824930 -1.998780 -0.069785 1.998780 -80.401901 -2.286570 -11.569300 -0.667711 -2.343700 -29.709999 -0.098090 12.969000 0.100304 1.998780 -0.069785 -1.998780 95.246201 -3.425390 10.031100 0.181251 1.027840 30.232599 0.076873 33.424000 -0.036732 7.709310 -22.203699 -27.712999 3.898020 40.065102 0.161704 22.546900 -40.253101 35.186298 11.016000 -18.719801 0.179902 -2.073740 21.917200 -1.331980 3.810370 -14.162000 12.136200 
-130.389999 49.703678 -35.587399 -2.568360 11.201100 -42.832401 4.120590 14.402400 -1.336480 -0.306762 -21.152100 -0.261764 -19.617800 39.683399 10.211900 -1.475730 22.847799 1.825520 -1.998780 -0.069785 1.998780 -80.655098 -2.604080 -11.416000 -0.662047 -2.346160 -29.534100 -0.096066 13.301000 0.089583 1.998780 -0.069785 -1.998780 95.016899 -3.496280 9.758350 0.182245 1.028170 30.291201 0.076918 33.395000 -0.036817 7.757350 -22.101700 -27.668501 3.908170 40.044300 0.149797 22.360701 -40.279400 34.935799 10.998200 -18.578899 0.086068 -2.078800 22.004999 -1.325790 3.981770 -14.432300 12.458500 
-131.123001 49.678577 -36.037899 -2.529300 11.064500 -42.949600 4.141930 14.450700 -1.382920 -0.316653 -21.161800 -0.345601 -20.105900 39.627201 10.362600 -1.596000 22.827801 1.795320 -1.998780 -0.069785 1.998780 -80.880096 -2.787710 -11.271500 -0.656691 -2.348460 -29.368000 -0.095977 13.545000 0.089062 1.998780 -0.069785 -1.998780 94.822403 -3.721320 9.487180 0.182908 1.028390 30.330299 0.076887 33.414001 -0.036760 7.786980 -22.025600 -27.623800 3.940580 40.080898 0.134518 22.158300 -40.342300 34.685200 10.992000 -18.442400 -0.015517 -2.094330 22.101999 -1.326560 4.148470 -14.718300 12.763900 
-131.848999 49.654278 -36.486401 -2.490230 10.927700 -43.066799 4.072510 14.481800 -1.368200 -0.359408 -21.181299 -0.356067 -20.400400 39.599300 10.332000 -1.686070 22.788401 1.723790 -1.998780 -0.069785 1.998780 -81.008003 -2.731970 -11.123800 -0.652907 -2.350080 -29.250700 -0.095938 13.653000 0.088834 1.998780 -0.069785 -1.998780 94.715599 -4.197250 9.219940 0.182908 1.028390 30.330299 0.076784 33.483002 -0.036563 7.881220 -21.860100 -27.508699 3.943890 40.021000 0.118843 21.933201 -40.423302 34.373600 10.987500 -18.317801 -0.067750 -2.107310 22.267099 -1.304420 4.311050 -15.064700 13.029600 
-132.561996 49.630680 -36.931702 -2.441400 10.771400 -43.212898 3.953160 14.523700 -1.306590 -0.403300 -21.191099 -0.314198 -20.603800 39.583801 10.249400 -1.776090 22.739300 1.652260 -1.998780 -0.069785 1.998780 -81.093201 -2.561420 -10.946100 -0.650700 -2.351020 -29.182301 -0.095912 13.721000 0.088688 1.998780 -0.069785 -1.998780 94.657898 -4.818210 8.973970 0.181914 1.028060 30.271700 0.076618 33.590000 -0.036252 7.903930 -21.777000 -27.368900 3.978480 40.016602 0.066649 21.690599 -40.497002 34.011398 10.980400 -18.184099 -0.091805 -2.117960 22.404200 -1.313520 4.476990 -15.393300 13.300800 
-133.261993 49.607979 -37.372101 -2.373040 10.615200 -43.398499 3.813450 14.556300 -1.247600 -0.456961 -21.210699 -0.272342 -20.825199 39.577099 10.183800 -1.866150 22.699800 1.590490 -1.998780 -0.069785 1.998780 -81.178703 -2.353080 -10.690100 -0.650700 -2.351020 -29.182301 -0.095897 13.760000 0.088605 1.998780 -0.069785 -1.998780 94.616096 -5.487480 8.769510 0.180090 1.027470 30.164301 0.076377 33.745998 -0.035799 7.932660 -21.673901 -27.171801 4.009460 40.102798 0.057639 21.499701 -40.667702 33.704800 10.961600 -18.046900 -0.080668 -2.126970 22.560200 -1.302450 4.649840 -15.679800 13.572000 
-133.955994 49.586678 -37.807899 -2.324220 10.429700 -43.564499 3.714280 14.607400 -1.212590 -0.502112 -21.210800 -0.261869 -21.114599 39.585098 10.222100 -1.956340 22.689600 1.558080 -1.998780 -0.069785 1.998780 -81.277496 -2.163980 -10.385500 -0.651960 -2.350490 -29.221399 -0.095886 13.789000 0.088542 1.998780 -0.069785 -1.998780 94.525902 -6.128470 8.565330 0.177437 1.026600 30.008101 0.076104 33.922001 -0.035287 7.967330 -21.517700 -26.981600 4.003130 40.103298 0.059972 21.334000 -40.769699 33.434200 10.934700 -17.891001 -0.079534 -2.136700 22.716600 -1.300860 4.807130 -15.979400 13.867800 
-134.641998 49.567780 -38.239601 -2.294920 10.224600 -43.671902 3.675050 14.647200 -1.227990 -0.540026 -21.200800 -0.314222 -21.453100 39.579399 10.337800 -2.056710 22.708700 1.555780 -1.998780 -0.069785 1.998780 -81.442101 -2.013320 -10.032300 -0.653854 -2.349680 -29.280001 -0.095871 13.828000 0.088458 1.998780 -0.069785 -1.998780 94.370499 -6.740720 8.380350 0.174781 1.025750 29.851900 0.075797 34.117001 -0.034716 7.986100 -21.336399 -26.809799 4.034860 40.099899 0.028889 21.163601 -40.818100 33.173000 10.909200 -17.743700 -0.137674 -2.173670 22.919600 -1.290510 4.992780 -16.291800 14.172300 
-135.317001 49.551479 -38.668701 -2.275390 10.009800 -43.730598 3.655880 14.686800 -1.250460 -0.552320 -21.191000 -0.377041 -21.774099 39.593601 10.451000 -2.147060 22.727900 1.552730 -1.998780 -0.069785 1.998780 -81.637100 -1.804660 -9.658840 -0.654800 -2.349270 -29.309299 -0.095853 13.877000 0.088354 1.998780 -0.069785 -1.998780 94.193398 -7.392740 8.167350 0.172455 1.025010 29.715300 0.075487 34.313000 -0.034143 8.011700 -21.136801 -26.686899 4.064080 40.107201 0.017062 20.963200 -40.911999 32.943600 10.856700 -17.541401 -0.258786 -2.201320 23.113501 -1.282670 5.166840 -16.602800 14.432800 
